<svg xmlns="http://www.w3.org/2000/svg" xmlns:xlink="http://www.w3.org/1999/xlink" width="500" zoomAndPan="magnify" viewBox="0 0 375 374.999991" height="500" preserveAspectRatio="xMidYMid meet" version="1.2"><defs><clipPath id="d5607fe95c"><path d="M 64.640625 37.5 L 310.640625 37.5 L 310.640625 283.5 L 64.640625 283.5 Z M 64.640625 37.5 "/></clipPath><clipPath id="9b10d88273"><path d="M 119.683594 97.019531 L 246.433594 97.019531 L 246.433594 195 L 119.683594 195 Z M 119.683594 97.019531 "/></clipPath><clipPath id="d52cf6babb"><path d="M 149 198 L 175 198 L 175 223.769531 L 149 223.769531 Z M 149 198 "/></clipPath><clipPath id="ae73669086"><path d="M 199 198 L 226 198 L 226 223.769531 L 199 223.769531 Z M 199 198 "/></clipPath><clipPath id="11288a0f54"><path d="M 246.359375 43.914062 L 279.359375 43.914062 L 279.359375 97.164062 L 246.359375 97.164062 Z M 246.359375 43.914062 "/></clipPath></defs><g id="e9ede58a79"><rect x="0" width="375" y="0" height="374.999991" style="fill:#ffffff;fill-opacity:1;stroke:none;"/><rect x="0" width="375" y="0" height="374.999991" style="fill:#424b50;fill-opacity:1;stroke:none;"/><g clip-rule="nonzero" clip-path="url(#d5607fe95c)"><path style=" stroke:none;fill-rule:nonzero;fill:#d8fd12;fill-opacity:1;" d="M 187.5 283.21875 C 119.738281 283.21875 64.640625 228.121094 64.640625 160.359375 C 64.640625 92.597656 119.738281 37.5 187.5 37.5 L 187.5 46.40625 C 124.703125 46.40625 73.546875 97.5625 73.546875 160.359375 C 73.546875 223.15625 124.703125 274.3125 187.5 274.3125 C 250.296875 274.3125 301.453125 223.15625 301.453125 160.359375 L 310.359375 160.359375 C 310.359375 228.121094 255.261719 283.21875 187.5 283.21875 Z M 187.5 283.21875 "/></g><g clip-rule="nonzero" clip-path="url(#9b10d88273)"><path style=" stroke:none;fill-rule:nonzero;fill:#d8fd12;fill-opacity:1;" d="M 153.460938 177.246094 L 218.28125 177.246094 C 219.308594 177.246094 220.328125 177.164062 221.339844 176.996094 C 222.355469 176.828125 223.347656 176.574219 224.316406 176.238281 C 225.285156 175.898438 226.222656 175.484375 227.121094 174.988281 C 228.019531 174.492188 228.871094 173.925781 229.675781 173.285156 C 230.480469 172.648438 231.222656 171.945312 231.90625 171.179688 C 232.59375 170.414062 233.207031 169.597656 233.753906 168.726562 C 234.300781 167.859375 234.769531 166.949219 235.164062 166 C 235.554688 165.050781 235.863281 164.074219 236.089844 163.074219 L 246.246094 119.082031 C 246.316406 118.773438 246.355469 118.460938 246.355469 118.140625 C 246.355469 117.824219 246.320312 117.511719 246.25 117.199219 C 246.179688 116.890625 246.078125 116.59375 245.9375 116.304688 C 245.800781 116.019531 245.632812 115.75 245.4375 115.503906 C 245.238281 115.253906 245.015625 115.03125 244.765625 114.832031 C 244.519531 114.636719 244.25 114.464844 243.964844 114.328125 C 243.679688 114.191406 243.378906 114.085938 243.070312 114.015625 C 242.761719 113.945312 242.445312 113.910156 242.128906 113.910156 L 143.890625 113.910156 L 140.683594 100.277344 C 140.578125 99.8125 140.394531 99.378906 140.140625 98.980469 C 139.882812 98.578125 139.570312 98.230469 139.195312 97.933594 C 138.824219 97.636719 138.410156 97.410156 137.960938 97.253906 C 137.511719 97.097656 137.050781 97.019531 136.574219 97.019531 L 123.90625 97.019531 C 123.628906 97.019531 123.355469 97.046875 123.082031 97.101562 C 122.808594 97.15625 122.546875 97.238281 122.289062 97.34375 C 122.035156 97.449219 121.789062 97.578125 121.558594 97.734375 C 121.328125 97.886719 121.117188 98.0625 120.921875 98.257812 C 120.722656 98.453125 120.550781 98.667969 120.394531 98.898438 C 120.242188 99.128906 120.109375 99.371094 120.003906 99.628906 C 119.898438 99.882812 119.820312 100.148438 119.765625 100.421875 C 119.710938 100.691406 119.683594 100.964844 119.683594 101.242188 C 119.683594 101.519531 119.710938 101.796875 119.765625 102.066406 C 119.820312 102.339844 119.898438 102.601562 120.003906 102.859375 C 120.109375 103.117188 120.242188 103.359375 120.394531 103.589844 C 120.550781 103.820312 120.722656 104.035156 120.921875 104.230469 C 121.117188 104.425781 121.328125 104.601562 121.558594 104.753906 C 121.789062 104.910156 122.035156 105.039062 122.289062 105.144531 C 122.546875 105.25 122.808594 105.332031 123.082031 105.386719 C 123.355469 105.4375 123.628906 105.464844 123.90625 105.464844 L 133.230469 105.464844 L 148.394531 169.878906 C 147.738281 170.171875 147.109375 170.515625 146.507812 170.914062 C 145.910156 171.3125 145.347656 171.757812 144.824219 172.253906 C 144.300781 172.746094 143.820312 173.28125 143.390625 173.855469 C 142.957031 174.433594 142.574219 175.039062 142.246094 175.679688 C 141.917969 176.320312 141.644531 176.984375 141.429688 177.671875 C 141.214844 178.359375 141.058594 179.058594 140.960938 179.773438 C 140.867188 180.484375 140.832031 181.203125 140.855469 181.921875 C 140.882812 182.640625 140.96875 183.351562 141.117188 184.058594 C 141.261719 184.761719 141.46875 185.449219 141.734375 186.117188 C 141.996094 186.789062 142.316406 187.429688 142.691406 188.046875 C 143.0625 188.660156 143.488281 189.238281 143.960938 189.78125 C 144.433594 190.324219 144.949219 190.824219 145.503906 191.28125 C 146.0625 191.734375 146.65625 192.140625 147.28125 192.496094 C 147.910156 192.847656 148.5625 193.148438 149.238281 193.390625 C 149.917969 193.632812 150.609375 193.816406 151.320312 193.941406 C 152.027344 194.066406 152.742188 194.128906 153.460938 194.132812 L 233.683594 194.132812 C 233.960938 194.132812 234.238281 194.105469 234.507812 194.050781 C 234.78125 194 235.042969 193.917969 235.300781 193.8125 C 235.558594 193.707031 235.800781 193.574219 236.03125 193.421875 C 236.261719 193.269531 236.472656 193.09375 236.671875 192.898438 C 236.867188 192.699219 237.042969 192.488281 237.195312 192.257812 C 237.351562 192.027344 237.480469 191.78125 237.585938 191.527344 C 237.691406 191.269531 237.773438 191.007812 237.824219 190.734375 C 237.878906 190.464844 237.90625 190.1875 237.90625 189.910156 C 237.90625 189.632812 237.878906 189.359375 237.824219 189.085938 C 237.773438 188.816406 237.691406 188.550781 237.585938 188.296875 C 237.480469 188.039062 237.351562 187.796875 237.195312 187.566406 C 237.042969 187.335938 236.867188 187.121094 236.671875 186.925781 C 236.472656 186.730469 236.261719 186.554688 236.03125 186.402344 C 235.800781 186.246094 235.558594 186.117188 235.300781 186.011719 C 235.042969 185.902344 234.78125 185.824219 234.507812 185.769531 C 234.238281 185.714844 233.960938 185.6875 233.683594 185.6875 L 153.460938 185.6875 C 153.183594 185.6875 152.910156 185.660156 152.636719 185.609375 C 152.367188 185.554688 152.101562 185.472656 151.847656 185.367188 C 151.589844 185.261719 151.347656 185.132812 151.117188 184.976562 C 150.886719 184.824219 150.671875 184.648438 150.476562 184.453125 C 150.28125 184.257812 150.105469 184.042969 149.953125 183.8125 C 149.796875 183.582031 149.667969 183.339844 149.5625 183.082031 C 149.453125 182.828125 149.375 182.5625 149.320312 182.289062 C 149.265625 182.019531 149.238281 181.742188 149.238281 181.464844 C 149.238281 181.191406 149.265625 180.914062 149.320312 180.644531 C 149.375 180.371094 149.453125 180.105469 149.5625 179.851562 C 149.667969 179.59375 149.796875 179.351562 149.953125 179.121094 C 150.105469 178.890625 150.28125 178.675781 150.476562 178.480469 C 150.671875 178.285156 150.886719 178.109375 151.117188 177.957031 C 151.347656 177.800781 151.589844 177.671875 151.847656 177.566406 C 152.101562 177.460938 152.367188 177.378906 152.636719 177.324219 C 152.910156 177.269531 153.183594 177.246094 153.460938 177.246094 Z M 236.820312 122.355469 L 227.863281 161.175781 C 227.742188 161.714844 227.574219 162.238281 227.363281 162.75 C 227.152344 163.261719 226.898438 163.75 226.605469 164.21875 C 226.3125 164.683594 225.980469 165.125 225.613281 165.539062 C 225.246094 165.949219 224.84375 166.328125 224.414062 166.671875 C 223.980469 167.015625 223.523438 167.320312 223.039062 167.585938 C 222.554688 167.855469 222.050781 168.078125 221.527344 168.257812 C 221.007812 168.441406 220.472656 168.574219 219.929688 168.667969 C 219.382812 168.757812 218.835938 168.800781 218.28125 168.800781 L 156.804688 168.800781 L 145.863281 122.355469 Z M 236.820312 122.355469 "/></g><g clip-rule="nonzero" clip-path="url(#d52cf6babb)"><path style=" stroke:none;fill-rule:nonzero;fill:#d8fd12;fill-opacity:1;" d="M 161.90625 198.355469 C 161.074219 198.355469 160.25 198.4375 159.433594 198.597656 C 158.621094 198.761719 157.828125 199 157.058594 199.320312 C 156.289062 199.636719 155.5625 200.027344 154.867188 200.492188 C 154.175781 200.953125 153.539062 201.476562 152.949219 202.066406 C 152.363281 202.652344 151.835938 203.292969 151.375 203.984375 C 150.914062 204.675781 150.523438 205.40625 150.203125 206.175781 C 149.886719 206.945312 149.644531 207.734375 149.484375 208.550781 C 149.320312 209.367188 149.238281 210.191406 149.238281 211.023438 C 149.238281 211.855469 149.320312 212.679688 149.484375 213.492188 C 149.644531 214.308594 149.886719 215.101562 150.203125 215.871094 C 150.523438 216.636719 150.914062 217.367188 151.375 218.058594 C 151.835938 218.75 152.363281 219.390625 152.949219 219.980469 C 153.539062 220.566406 154.175781 221.09375 154.867188 221.554688 C 155.5625 222.015625 156.289062 222.40625 157.058594 222.726562 C 157.828125 223.042969 158.621094 223.285156 159.433594 223.445312 C 160.25 223.609375 161.074219 223.6875 161.90625 223.6875 C 162.738281 223.6875 163.5625 223.609375 164.378906 223.445312 C 165.191406 223.285156 165.984375 223.042969 166.753906 222.726562 C 167.523438 222.40625 168.253906 222.015625 168.945312 221.554688 C 169.636719 221.09375 170.273438 220.566406 170.863281 219.980469 C 171.453125 219.390625 171.976562 218.75 172.4375 218.058594 C 172.902344 217.367188 173.289062 216.636719 173.609375 215.871094 C 173.925781 215.101562 174.167969 214.308594 174.328125 213.492188 C 174.492188 212.679688 174.574219 211.855469 174.574219 211.023438 C 174.574219 210.191406 174.492188 209.367188 174.328125 208.550781 C 174.167969 207.734375 173.925781 206.945312 173.609375 206.175781 C 173.289062 205.40625 172.902344 204.675781 172.4375 203.984375 C 171.976562 203.292969 171.453125 202.652344 170.863281 202.066406 C 170.273438 201.476562 169.636719 200.953125 168.945312 200.492188 C 168.253906 200.027344 167.523438 199.636719 166.753906 199.320312 C 165.984375 199 165.191406 198.761719 164.378906 198.597656 C 163.5625 198.4375 162.738281 198.355469 161.90625 198.355469 Z M 161.90625 215.246094 C 161.628906 215.246094 161.355469 215.21875 161.082031 215.164062 C 160.8125 215.109375 160.546875 215.03125 160.289062 214.921875 C 160.035156 214.816406 159.792969 214.6875 159.5625 214.535156 C 159.332031 214.378906 159.117188 214.203125 158.921875 214.007812 C 158.726562 213.8125 158.550781 213.597656 158.394531 213.367188 C 158.242188 213.136719 158.113281 212.894531 158.003906 212.636719 C 157.898438 212.382812 157.820312 212.117188 157.765625 211.847656 C 157.710938 211.574219 157.683594 211.300781 157.683594 211.023438 C 157.683594 210.746094 157.710938 210.472656 157.765625 210.199219 C 157.820312 209.925781 157.898438 209.664062 158.003906 209.40625 C 158.113281 209.152344 158.242188 208.90625 158.394531 208.675781 C 158.550781 208.445312 158.726562 208.234375 158.921875 208.035156 C 159.117188 207.839844 159.332031 207.664062 159.5625 207.511719 C 159.792969 207.359375 160.035156 207.226562 160.289062 207.121094 C 160.546875 207.015625 160.8125 206.933594 161.082031 206.882812 C 161.355469 206.828125 161.628906 206.800781 161.90625 206.800781 C 162.183594 206.800781 162.457031 206.828125 162.730469 206.882812 C 163.003906 206.933594 163.265625 207.015625 163.523438 207.121094 C 163.777344 207.226562 164.023438 207.359375 164.253906 207.511719 C 164.484375 207.664062 164.695312 207.839844 164.890625 208.035156 C 165.089844 208.234375 165.261719 208.445312 165.417969 208.675781 C 165.570312 208.90625 165.703125 209.152344 165.808594 209.40625 C 165.914062 209.664062 165.992188 209.925781 166.046875 210.199219 C 166.101562 210.472656 166.128906 210.746094 166.128906 211.023438 C 166.128906 211.300781 166.101562 211.574219 166.046875 211.847656 C 165.992188 212.117188 165.914062 212.382812 165.808594 212.636719 C 165.703125 212.894531 165.570312 213.136719 165.417969 213.367188 C 165.261719 213.597656 165.089844 213.8125 164.890625 214.007812 C 164.695312 214.203125 164.484375 214.378906 164.253906 214.535156 C 164.023438 214.6875 163.777344 214.816406 163.523438 214.921875 C 163.265625 215.03125 163.003906 215.109375 162.730469 215.164062 C 162.457031 215.21875 162.183594 215.246094 161.90625 215.246094 Z M 161.90625 215.246094 "/></g><g clip-rule="nonzero" clip-path="url(#ae73669086)"><path style=" stroke:none;fill-rule:nonzero;fill:#d8fd12;fill-opacity:1;" d="M 212.574219 198.355469 C 211.742188 198.355469 210.917969 198.4375 210.101562 198.597656 C 209.285156 198.761719 208.496094 199 207.726562 199.320312 C 206.957031 199.636719 206.226562 200.027344 205.535156 200.492188 C 204.84375 200.953125 204.203125 201.476562 203.617188 202.066406 C 203.027344 202.652344 202.503906 203.292969 202.042969 203.984375 C 201.578125 204.675781 201.1875 205.40625 200.871094 206.175781 C 200.550781 206.945312 200.3125 207.734375 200.148438 208.550781 C 199.988281 209.367188 199.90625 210.191406 199.90625 211.023438 C 199.90625 211.855469 199.988281 212.679688 200.148438 213.492188 C 200.3125 214.308594 200.550781 215.101562 200.871094 215.871094 C 201.1875 216.636719 201.578125 217.367188 202.042969 218.058594 C 202.503906 218.75 203.027344 219.390625 203.617188 219.980469 C 204.203125 220.566406 204.84375 221.09375 205.535156 221.554688 C 206.226562 222.015625 206.957031 222.40625 207.726562 222.726562 C 208.496094 223.042969 209.285156 223.285156 210.101562 223.445312 C 210.917969 223.609375 211.742188 223.6875 212.574219 223.6875 C 213.40625 223.6875 214.230469 223.609375 215.042969 223.445312 C 215.859375 223.285156 216.652344 223.042969 217.421875 222.726562 C 218.1875 222.40625 218.917969 222.015625 219.609375 221.554688 C 220.300781 221.09375 220.941406 220.566406 221.53125 219.980469 C 222.117188 219.390625 222.644531 218.75 223.105469 218.058594 C 223.566406 217.367188 223.957031 216.636719 224.277344 215.871094 C 224.59375 215.101562 224.835938 214.308594 224.996094 213.492188 C 225.160156 212.679688 225.242188 211.855469 225.242188 211.023438 C 225.242188 210.191406 225.160156 209.367188 224.996094 208.550781 C 224.835938 207.734375 224.59375 206.945312 224.277344 206.175781 C 223.957031 205.40625 223.566406 204.675781 223.105469 203.984375 C 222.644531 203.292969 222.117188 202.652344 221.53125 202.066406 C 220.941406 201.476562 220.300781 200.953125 219.609375 200.492188 C 218.917969 200.027344 218.1875 199.636719 217.421875 199.320312 C 216.652344 199 215.859375 198.761719 215.042969 198.597656 C 214.230469 198.4375 213.40625 198.355469 212.574219 198.355469 Z M 212.574219 215.246094 C 212.296875 215.246094 212.023438 215.21875 211.75 215.164062 C 211.476562 215.109375 211.214844 215.03125 210.957031 214.921875 C 210.703125 214.816406 210.457031 214.6875 210.226562 214.535156 C 209.996094 214.378906 209.785156 214.203125 209.589844 214.007812 C 209.390625 213.8125 209.21875 213.597656 209.0625 213.367188 C 208.910156 213.136719 208.777344 212.894531 208.671875 212.636719 C 208.566406 212.382812 208.488281 212.117188 208.433594 211.847656 C 208.378906 211.574219 208.351562 211.300781 208.351562 211.023438 C 208.351562 210.746094 208.378906 210.472656 208.433594 210.199219 C 208.488281 209.925781 208.566406 209.664062 208.671875 209.40625 C 208.777344 209.152344 208.910156 208.90625 209.0625 208.675781 C 209.21875 208.445312 209.390625 208.234375 209.589844 208.035156 C 209.785156 207.839844 209.996094 207.664062 210.226562 207.511719 C 210.457031 207.359375 210.703125 207.226562 210.957031 207.121094 C 211.214844 207.015625 211.476562 206.933594 211.75 206.882812 C 212.023438 206.828125 212.296875 206.800781 212.574219 206.800781 C 212.851562 206.800781 213.125 206.828125 213.398438 206.882812 C 213.667969 206.933594 213.933594 207.015625 214.1875 207.121094 C 214.445312 207.226562 214.6875 207.359375 214.917969 207.511719 C 215.148438 207.664062 215.363281 207.839844 215.558594 208.035156 C 215.753906 208.234375 215.929688 208.445312 216.085938 208.675781 C 216.238281 208.90625 216.367188 209.152344 216.472656 209.40625 C 216.582031 209.664062 216.660156 209.925781 216.714844 210.199219 C 216.769531 210.472656 216.796875 210.746094 216.796875 211.023438 C 216.796875 211.300781 216.769531 211.574219 216.714844 211.847656 C 216.660156 212.117188 216.582031 212.382812 216.472656 212.636719 C 216.367188 212.894531 216.238281 213.136719 216.085938 213.367188 C 215.929688 213.597656 215.753906 213.8125 215.558594 214.007812 C 215.363281 214.203125 215.148438 214.378906 214.917969 214.535156 C 214.6875 214.6875 214.445312 214.816406 214.1875 214.921875 C 213.933594 215.03125 213.667969 215.109375 213.398438 215.164062 C 213.125 215.21875 212.851562 215.246094 212.574219 215.246094 Z M 212.574219 215.246094 "/></g><g clip-rule="nonzero" clip-path="url(#11288a0f54)"><path style=" stroke:none;fill-rule:nonzero;fill:#45cfef;fill-opacity:1;" d="M 278.109375 73.402344 C 277.421875 72.027344 276.464844 70.847656 275.238281 69.855469 C 274.015625 68.867188 272.558594 68.007812 270.871094 67.28125 C 269.183594 66.558594 267.339844 65.863281 265.34375 65.203125 C 264.304688 64.867188 263.398438 64.550781 262.617188 64.257812 C 261.832031 63.964844 261.175781 63.65625 260.652344 63.324219 C 260.121094 62.996094 259.726562 62.636719 259.464844 62.25 C 259.199219 61.863281 259.066406 61.40625 259.066406 60.878906 C 259.066406 60.351562 259.1875 59.90625 259.433594 59.535156 C 259.679688 59.167969 260.007812 58.871094 260.425781 58.644531 C 260.839844 58.417969 261.320312 58.253906 261.867188 58.152344 C 262.414062 58.046875 262.996094 57.996094 263.617188 57.996094 C 264.222656 57.996094 264.816406 58.085938 265.398438 58.265625 C 265.984375 58.441406 266.539062 58.667969 267.066406 58.941406 C 267.597656 59.214844 268.089844 59.523438 268.554688 59.859375 C 269.015625 60.199219 269.433594 60.53125 269.8125 60.851562 L 270.066406 61.078125 C 270.328125 61.304688 270.570312 61.492188 270.785156 61.640625 C 271.003906 61.792969 271.242188 61.867188 271.507812 61.867188 C 271.828125 61.867188 272.148438 61.707031 272.46875 61.386719 L 276.796875 56.777344 C 277.039062 56.515625 277.222656 56.28125 277.347656 56.074219 C 277.46875 55.867188 277.53125 55.640625 277.53125 55.394531 C 277.53125 55.148438 277.402344 54.855469 277.148438 54.519531 C 276.894531 54.179688 276.550781 53.820312 276.117188 53.445312 C 275.683594 53.066406 275.179688 52.675781 274.601562 52.269531 C 274.027344 51.867188 273.421875 51.472656 272.777344 51.097656 C 271.78125 50.550781 270.777344 50.101562 269.769531 49.753906 C 268.761719 49.40625 267.730469 49.136719 266.671875 48.949219 L 266.671875 45.160156 C 266.671875 44.78125 266.515625 44.480469 266.207031 44.253906 C 265.894531 44.027344 265.597656 43.914062 265.316406 43.914062 L 260 43.914062 C 259.585938 43.914062 259.273438 44.039062 259.066406 44.28125 C 258.859375 44.527344 258.757812 44.820312 258.757812 45.160156 L 258.757812 49.089844 C 257.117188 49.410156 255.640625 49.90625 254.332031 50.574219 C 253.019531 51.242188 251.914062 52.058594 251.007812 53.019531 C 250.105469 53.980469 249.40625 55.074219 248.917969 56.300781 C 248.425781 57.523438 248.179688 58.863281 248.179688 60.3125 C 248.179688 61.972656 248.464844 63.476562 249.03125 64.824219 C 249.59375 66.171875 250.445312 67.40625 251.574219 68.527344 C 252.703125 69.648438 254.121094 70.667969 255.816406 71.582031 C 257.511719 72.496094 259.492188 73.347656 261.753906 74.140625 C 262.261719 74.308594 262.867188 74.523438 263.5625 74.777344 C 264.261719 75.03125 264.929688 75.335938 265.570312 75.695312 C 266.210938 76.054688 266.753906 76.464844 267.195312 76.925781 C 267.640625 77.386719 267.859375 77.910156 267.859375 78.492188 C 267.859375 79.023438 267.78125 79.523438 267.621094 79.992188 C 267.460938 80.464844 267.191406 80.878906 266.8125 81.238281 C 266.4375 81.59375 265.921875 81.882812 265.273438 82.097656 C 264.621094 82.316406 263.816406 82.425781 262.855469 82.425781 C 261.820312 82.425781 260.828125 82.246094 259.886719 81.886719 C 258.945312 81.527344 257.992188 81.03125 257.03125 80.386719 C 256.390625 79.957031 255.820312 79.515625 255.320312 79.074219 C 254.820312 78.628906 254.410156 78.277344 254.089844 78.011719 C 253.828125 77.789062 253.601562 77.617188 253.410156 77.503906 C 253.222656 77.390625 253.042969 77.335938 252.875 77.335938 C 252.628906 77.335938 252.308594 77.476562 251.914062 77.757812 L 247.023438 82.425781 C 246.589844 82.820312 246.371094 83.175781 246.371094 83.5 C 246.371094 83.78125 246.589844 84.160156 247.023438 84.628906 C 247.039062 84.648438 247.058594 84.660156 247.078125 84.671875 C 247.097656 84.679688 247.117188 84.703125 247.136719 84.742188 C 247.152344 84.761719 247.171875 84.773438 247.191406 84.785156 C 247.210938 84.792969 247.230469 84.816406 247.246094 84.855469 L 247.332031 84.941406 C 247.632812 85.261719 248.042969 85.683594 248.5625 86.210938 C 249.082031 86.738281 249.71875 87.277344 250.472656 87.824219 C 251.714844 88.726562 253.035156 89.511719 254.429688 90.171875 C 255.824219 90.832031 257.265625 91.320312 258.757812 91.640625 L 258.757812 95.769531 C 258.757812 96.597656 259.171875 97.011719 260 97.011719 L 265.316406 97.011719 C 266.222656 97.011719 266.671875 96.597656 266.671875 95.769531 L 266.671875 91.726562 C 268.480469 91.40625 270.144531 90.863281 271.664062 90.101562 C 273.179688 89.335938 274.496094 88.378906 275.609375 87.230469 C 276.71875 86.082031 277.585938 84.765625 278.207031 83.285156 C 278.828125 81.808594 279.140625 80.179688 279.140625 78.410156 C 279.140625 76.449219 278.796875 74.78125 278.109375 73.402344 "/></g><g style="fill:#d32f23;fill-opacity:0.4196;"><g transform="translate(108.97373, 337.133738)"><path style="stroke:none" d="M 14.765625 -24.765625 C 14.910156 -25.023438 15.128906 -25.15625 15.421875 -25.15625 L 20.875 -25.15625 C 21.019531 -25.15625 21.132812 -25.109375 21.21875 -25.015625 C 21.300781 -24.921875 21.332031 -24.789062 21.3125 -24.625 L 18.359375 -0.546875 C 18.335938 -0.367188 18.269531 -0.234375 18.15625 -0.140625 C 18.050781 -0.046875 17.929688 0 17.796875 0 L 12.25 0 C 12.113281 0 12 -0.046875 11.90625 -0.140625 C 11.820312 -0.234375 11.796875 -0.367188 11.828125 -0.546875 L 13.625 -15.234375 C 13.644531 -15.328125 13.625 -15.378906 13.5625 -15.390625 C 13.507812 -15.410156 13.457031 -15.382812 13.40625 -15.3125 L 10.96875 -11.78125 L 10.53125 -11.140625 L 10.5 -11.140625 L 8.65625 -15.3125 C 8.632812 -15.382812 8.597656 -15.410156 8.546875 -15.390625 C 8.503906 -15.378906 8.472656 -15.328125 8.453125 -15.234375 L 6.65625 -0.546875 C 6.625 -0.367188 6.5625 -0.234375 6.46875 -0.140625 C 6.375 -0.046875 6.242188 0 6.078125 0 L 0.578125 0 C 0.410156 0 0.285156 -0.046875 0.203125 -0.140625 C 0.117188 -0.234375 0.0859375 -0.367188 0.109375 -0.546875 L 3.0625 -24.625 C 3.082031 -24.789062 3.144531 -24.921875 3.25 -25.015625 C 3.363281 -25.109375 3.488281 -25.15625 3.625 -25.15625 L 9.09375 -25.15625 C 9.382812 -25.15625 9.578125 -25.023438 9.671875 -24.765625 L 11.578125 -20.09375 C 11.617188 -20 11.6875 -20 11.78125 -20.09375 Z M 14.765625 -24.765625 "/></g></g><g style="fill:#d32f23;fill-opacity:0.4196;"><g transform="translate(128.699085, 337.133738)"><path style="stroke:none" d="M 11.171875 0 C 10.835938 0 10.679688 -0.164062 10.703125 -0.5 L 10.640625 -3.234375 C 10.660156 -3.285156 10.644531 -3.328125 10.59375 -3.359375 C 10.550781 -3.398438 10.503906 -3.421875 10.453125 -3.421875 L 7.328125 -3.421875 C 7.210938 -3.421875 7.128906 -3.359375 7.078125 -3.234375 L 6.390625 -0.5 C 6.328125 -0.164062 6.125 0 5.78125 0 L 0.328125 0 C -0.0351562 0 -0.171875 -0.191406 -0.078125 -0.578125 L 7.828125 -24.6875 C 7.929688 -25 8.148438 -25.15625 8.484375 -25.15625 L 14.84375 -25.15625 C 15.175781 -25.15625 15.351562 -25 15.375 -24.6875 L 17.359375 -0.578125 L 17.359375 -0.5 C 17.359375 -0.164062 17.175781 0 16.8125 0 Z M 8.546875 -8.765625 C 8.503906 -8.648438 8.539062 -8.59375 8.65625 -8.59375 L 10.34375 -8.59375 C 10.414062 -8.59375 10.476562 -8.648438 10.53125 -8.765625 L 10.390625 -15.421875 C 10.390625 -15.515625 10.359375 -15.554688 10.296875 -15.546875 C 10.234375 -15.535156 10.203125 -15.492188 10.203125 -15.421875 Z M 8.546875 -8.765625 "/></g></g><g style="fill:#d32f23;fill-opacity:0.4196;"><g transform="translate(147.202842, 337.133738)"><path style="stroke:none" d="M 9.734375 0 C 9.453125 0 9.285156 -0.15625 9.234375 -0.46875 L 8.1875 -9.53125 C 8.1875 -9.625 8.15625 -9.671875 8.09375 -9.671875 C 7.988281 -9.671875 7.9375 -9.609375 7.9375 -9.484375 L 6.828125 -0.546875 C 6.804688 -0.367188 6.738281 -0.234375 6.625 -0.140625 C 6.519531 -0.046875 6.394531 0 6.25 0 L 0.71875 0 C 0.570312 0 0.457031 -0.046875 0.375 -0.140625 C 0.289062 -0.234375 0.257812 -0.367188 0.28125 -0.546875 L 3.234375 -24.625 C 3.253906 -24.789062 3.316406 -24.921875 3.421875 -25.015625 C 3.535156 -25.109375 3.664062 -25.15625 3.8125 -25.15625 L 11.6875 -25.15625 C 13.601562 -25.15625 15.113281 -24.539062 16.21875 -23.3125 C 17.332031 -22.09375 17.890625 -20.476562 17.890625 -18.46875 C 17.890625 -17.894531 17.867188 -17.453125 17.828125 -17.140625 C 17.660156 -15.828125 17.285156 -14.648438 16.703125 -13.609375 C 16.128906 -12.566406 15.390625 -11.71875 14.484375 -11.0625 C 14.359375 -11 14.320312 -10.914062 14.375 -10.8125 L 15.921875 -0.609375 L 15.921875 -0.46875 C 15.921875 -0.320312 15.875 -0.207031 15.78125 -0.125 C 15.6875 -0.0390625 15.566406 0 15.421875 0 Z M 9.3125 -19.375 C 9.1875 -19.375 9.125 -19.3125 9.125 -19.1875 L 8.59375 -14.984375 C 8.59375 -14.867188 8.648438 -14.8125 8.765625 -14.8125 L 9.234375 -14.8125 C 9.804688 -14.8125 10.289062 -15.0625 10.6875 -15.5625 C 11.082031 -16.0625 11.28125 -16.753906 11.28125 -17.640625 C 11.28125 -18.191406 11.148438 -18.617188 10.890625 -18.921875 C 10.628906 -19.222656 10.269531 -19.375 9.8125 -19.375 Z M 9.3125 -19.375 "/></g></g><g style="fill:#d32f23;fill-opacity:0.4196;"><g transform="translate(164.269415, 337.133738)"><path style="stroke:none" d="M 0.71875 0 C 0.570312 0 0.457031 -0.046875 0.375 -0.140625 C 0.289062 -0.234375 0.257812 -0.367188 0.28125 -0.546875 L 3.234375 -24.625 C 3.253906 -24.789062 3.316406 -24.921875 3.421875 -25.015625 C 3.535156 -25.109375 3.664062 -25.15625 3.8125 -25.15625 L 9.34375 -25.15625 C 9.488281 -25.15625 9.601562 -25.109375 9.6875 -25.015625 C 9.769531 -24.921875 9.800781 -24.789062 9.78125 -24.625 L 8.90625 -17.390625 C 8.882812 -17.296875 8.894531 -17.25 8.9375 -17.25 C 8.988281 -17.25 9.039062 -17.285156 9.09375 -17.359375 L 12.96875 -24.71875 C 13.113281 -25.007812 13.34375 -25.15625 13.65625 -25.15625 L 19.40625 -25.15625 C 19.695312 -25.15625 19.84375 -25.046875 19.84375 -24.828125 C 19.84375 -24.734375 19.804688 -24.628906 19.734375 -24.515625 L 13.515625 -13.875 C 13.492188 -13.78125 13.484375 -13.707031 13.484375 -13.65625 L 16.96875 -0.609375 L 16.96875 -0.46875 C 16.96875 -0.15625 16.796875 0 16.453125 0 L 10.671875 0 C 10.359375 0 10.164062 -0.144531 10.09375 -0.4375 L 8.265625 -7.828125 C 8.265625 -7.898438 8.238281 -7.941406 8.1875 -7.953125 C 8.144531 -7.972656 8.113281 -7.929688 8.09375 -7.828125 L 7.65625 -7.046875 L 7.625 -6.828125 L 6.828125 -0.546875 C 6.804688 -0.367188 6.738281 -0.234375 6.625 -0.140625 C 6.519531 -0.046875 6.394531 0 6.25 0 Z M 0.71875 0 "/></g></g><g style="fill:#d32f23;fill-opacity:0.4196;"><g transform="translate(182.270157, 337.133738)"><path style="stroke:none" d="M 16.609375 -19.90625 C 16.578125 -19.738281 16.507812 -19.609375 16.40625 -19.515625 C 16.300781 -19.421875 16.164062 -19.375 16 -19.375 L 9.3125 -19.375 C 9.1875 -19.375 9.125 -19.3125 9.125 -19.1875 L 8.703125 -15.671875 C 8.648438 -15.546875 8.695312 -15.484375 8.84375 -15.484375 L 12.328125 -15.484375 C 12.492188 -15.484375 12.617188 -15.4375 12.703125 -15.34375 C 12.785156 -15.25 12.816406 -15.117188 12.796875 -14.953125 L 12.21875 -10.25 C 12.144531 -9.882812 11.941406 -9.703125 11.609375 -9.703125 L 8.125 -9.703125 C 8 -9.703125 7.9375 -9.644531 7.9375 -9.53125 L 7.515625 -5.96875 C 7.460938 -5.84375 7.507812 -5.78125 7.65625 -5.78125 L 14.34375 -5.78125 C 14.507812 -5.78125 14.632812 -5.734375 14.71875 -5.640625 C 14.800781 -5.546875 14.832031 -5.414062 14.8125 -5.25 L 14.234375 -0.546875 C 14.210938 -0.367188 14.144531 -0.234375 14.03125 -0.140625 C 13.925781 -0.046875 13.789062 0 13.625 0 L 0.71875 0 C 0.570312 0 0.457031 -0.046875 0.375 -0.140625 C 0.289062 -0.234375 0.257812 -0.367188 0.28125 -0.546875 L 3.234375 -24.625 C 3.253906 -24.789062 3.316406 -24.921875 3.421875 -25.015625 C 3.535156 -25.109375 3.664062 -25.15625 3.8125 -25.15625 L 16.71875 -25.15625 C 16.882812 -25.15625 17.007812 -25.109375 17.09375 -25.015625 C 17.175781 -24.921875 17.203125 -24.789062 17.171875 -24.625 Z M 16.609375 -19.90625 "/></g></g><g style="fill:#d32f23;fill-opacity:0.4196;"><g transform="translate(197.75582, 337.133738)"><path style="stroke:none" d="M 18.65625 -25.15625 C 18.800781 -25.15625 18.914062 -25.109375 19 -25.015625 C 19.082031 -24.921875 19.109375 -24.789062 19.078125 -24.625 L 18.515625 -19.90625 C 18.484375 -19.738281 18.421875 -19.609375 18.328125 -19.515625 C 18.234375 -19.421875 18.101562 -19.375 17.9375 -19.375 L 13.765625 -19.375 C 13.640625 -19.375 13.578125 -19.3125 13.578125 -19.1875 L 11.28125 -0.546875 C 11.257812 -0.367188 11.203125 -0.234375 11.109375 -0.140625 C 11.015625 -0.046875 10.878906 0 10.703125 0 L 5.21875 0 C 5.039062 0 4.910156 -0.046875 4.828125 -0.140625 C 4.742188 -0.234375 4.71875 -0.367188 4.75 -0.546875 L 7.046875 -19.1875 C 7.046875 -19.3125 6.984375 -19.375 6.859375 -19.375 L 2.84375 -19.375 C 2.675781 -19.375 2.550781 -19.421875 2.46875 -19.515625 C 2.382812 -19.609375 2.351562 -19.738281 2.375 -19.90625 L 2.953125 -24.625 C 2.972656 -24.789062 3.035156 -24.921875 3.140625 -25.015625 C 3.253906 -25.109375 3.394531 -25.15625 3.5625 -25.15625 Z M 18.65625 -25.15625 "/></g></g><g style="fill:#45cfef;fill-opacity:1;"><g transform="translate(107.905499, 336.171892)"><path style="stroke:none" d="M 14.765625 -24.765625 C 14.910156 -25.023438 15.128906 -25.15625 15.421875 -25.15625 L 20.875 -25.15625 C 21.019531 -25.15625 21.132812 -25.109375 21.21875 -25.015625 C 21.300781 -24.921875 21.332031 -24.789062 21.3125 -24.625 L 18.359375 -0.546875 C 18.335938 -0.367188 18.269531 -0.234375 18.15625 -0.140625 C 18.050781 -0.046875 17.929688 0 17.796875 0 L 12.25 0 C 12.113281 0 12 -0.046875 11.90625 -0.140625 C 11.820312 -0.234375 11.796875 -0.367188 11.828125 -0.546875 L 13.625 -15.234375 C 13.644531 -15.328125 13.625 -15.378906 13.5625 -15.390625 C 13.507812 -15.410156 13.457031 -15.382812 13.40625 -15.3125 L 10.96875 -11.78125 L 10.53125 -11.140625 L 10.5 -11.140625 L 8.65625 -15.3125 C 8.632812 -15.382812 8.597656 -15.410156 8.546875 -15.390625 C 8.503906 -15.378906 8.472656 -15.328125 8.453125 -15.234375 L 6.65625 -0.546875 C 6.625 -0.367188 6.5625 -0.234375 6.46875 -0.140625 C 6.375 -0.046875 6.242188 0 6.078125 0 L 0.578125 0 C 0.410156 0 0.285156 -0.046875 0.203125 -0.140625 C 0.117188 -0.234375 0.0859375 -0.367188 0.109375 -0.546875 L 3.0625 -24.625 C 3.082031 -24.789062 3.144531 -24.921875 3.25 -25.015625 C 3.363281 -25.109375 3.488281 -25.15625 3.625 -25.15625 L 9.09375 -25.15625 C 9.382812 -25.15625 9.578125 -25.023438 9.671875 -24.765625 L 11.578125 -20.09375 C 11.617188 -20 11.6875 -20 11.78125 -20.09375 Z M 14.765625 -24.765625 "/></g></g><g style="fill:#45cfef;fill-opacity:1;"><g transform="translate(127.630855, 336.171892)"><path style="stroke:none" d="M 11.171875 0 C 10.835938 0 10.679688 -0.164062 10.703125 -0.5 L 10.640625 -3.234375 C 10.660156 -3.285156 10.644531 -3.328125 10.59375 -3.359375 C 10.550781 -3.398438 10.503906 -3.421875 10.453125 -3.421875 L 7.328125 -3.421875 C 7.210938 -3.421875 7.128906 -3.359375 7.078125 -3.234375 L 6.390625 -0.5 C 6.328125 -0.164062 6.125 0 5.78125 0 L 0.328125 0 C -0.0351562 0 -0.171875 -0.191406 -0.078125 -0.578125 L 7.828125 -24.6875 C 7.929688 -25 8.148438 -25.15625 8.484375 -25.15625 L 14.84375 -25.15625 C 15.175781 -25.15625 15.351562 -25 15.375 -24.6875 L 17.359375 -0.578125 L 17.359375 -0.5 C 17.359375 -0.164062 17.175781 0 16.8125 0 Z M 8.546875 -8.765625 C 8.503906 -8.648438 8.539062 -8.59375 8.65625 -8.59375 L 10.34375 -8.59375 C 10.414062 -8.59375 10.476562 -8.648438 10.53125 -8.765625 L 10.390625 -15.421875 C 10.390625 -15.515625 10.359375 -15.554688 10.296875 -15.546875 C 10.234375 -15.535156 10.203125 -15.492188 10.203125 -15.421875 Z M 8.546875 -8.765625 "/></g></g><g style="fill:#45cfef;fill-opacity:1;"><g transform="translate(146.134611, 336.171892)"><path style="stroke:none" d="M 9.734375 0 C 9.453125 0 9.285156 -0.15625 9.234375 -0.46875 L 8.1875 -9.53125 C 8.1875 -9.625 8.15625 -9.671875 8.09375 -9.671875 C 7.988281 -9.671875 7.9375 -9.609375 7.9375 -9.484375 L 6.828125 -0.546875 C 6.804688 -0.367188 6.738281 -0.234375 6.625 -0.140625 C 6.519531 -0.046875 6.394531 0 6.25 0 L 0.71875 0 C 0.570312 0 0.457031 -0.046875 0.375 -0.140625 C 0.289062 -0.234375 0.257812 -0.367188 0.28125 -0.546875 L 3.234375 -24.625 C 3.253906 -24.789062 3.316406 -24.921875 3.421875 -25.015625 C 3.535156 -25.109375 3.664062 -25.15625 3.8125 -25.15625 L 11.6875 -25.15625 C 13.601562 -25.15625 15.113281 -24.539062 16.21875 -23.3125 C 17.332031 -22.09375 17.890625 -20.476562 17.890625 -18.46875 C 17.890625 -17.894531 17.867188 -17.453125 17.828125 -17.140625 C 17.660156 -15.828125 17.285156 -14.648438 16.703125 -13.609375 C 16.128906 -12.566406 15.390625 -11.71875 14.484375 -11.0625 C 14.359375 -11 14.320312 -10.914062 14.375 -10.8125 L 15.921875 -0.609375 L 15.921875 -0.46875 C 15.921875 -0.320312 15.875 -0.207031 15.78125 -0.125 C 15.6875 -0.0390625 15.566406 0 15.421875 0 Z M 9.3125 -19.375 C 9.1875 -19.375 9.125 -19.3125 9.125 -19.1875 L 8.59375 -14.984375 C 8.59375 -14.867188 8.648438 -14.8125 8.765625 -14.8125 L 9.234375 -14.8125 C 9.804688 -14.8125 10.289062 -15.0625 10.6875 -15.5625 C 11.082031 -16.0625 11.28125 -16.753906 11.28125 -17.640625 C 11.28125 -18.191406 11.148438 -18.617188 10.890625 -18.921875 C 10.628906 -19.222656 10.269531 -19.375 9.8125 -19.375 Z M 9.3125 -19.375 "/></g></g><g style="fill:#45cfef;fill-opacity:1;"><g transform="translate(163.201184, 336.171892)"><path style="stroke:none" d="M 0.71875 0 C 0.570312 0 0.457031 -0.046875 0.375 -0.140625 C 0.289062 -0.234375 0.257812 -0.367188 0.28125 -0.546875 L 3.234375 -24.625 C 3.253906 -24.789062 3.316406 -24.921875 3.421875 -25.015625 C 3.535156 -25.109375 3.664062 -25.15625 3.8125 -25.15625 L 9.34375 -25.15625 C 9.488281 -25.15625 9.601562 -25.109375 9.6875 -25.015625 C 9.769531 -24.921875 9.800781 -24.789062 9.78125 -24.625 L 8.90625 -17.390625 C 8.882812 -17.296875 8.894531 -17.25 8.9375 -17.25 C 8.988281 -17.25 9.039062 -17.285156 9.09375 -17.359375 L 12.96875 -24.71875 C 13.113281 -25.007812 13.34375 -25.15625 13.65625 -25.15625 L 19.40625 -25.15625 C 19.695312 -25.15625 19.84375 -25.046875 19.84375 -24.828125 C 19.84375 -24.734375 19.804688 -24.628906 19.734375 -24.515625 L 13.515625 -13.875 C 13.492188 -13.78125 13.484375 -13.707031 13.484375 -13.65625 L 16.96875 -0.609375 L 16.96875 -0.46875 C 16.96875 -0.15625 16.796875 0 16.453125 0 L 10.671875 0 C 10.359375 0 10.164062 -0.144531 10.09375 -0.4375 L 8.265625 -7.828125 C 8.265625 -7.898438 8.238281 -7.941406 8.1875 -7.953125 C 8.144531 -7.972656 8.113281 -7.929688 8.09375 -7.828125 L 7.65625 -7.046875 L 7.625 -6.828125 L 6.828125 -0.546875 C 6.804688 -0.367188 6.738281 -0.234375 6.625 -0.140625 C 6.519531 -0.046875 6.394531 0 6.25 0 Z M 0.71875 0 "/></g></g><g style="fill:#45cfef;fill-opacity:1;"><g transform="translate(181.201927, 336.171892)"><path style="stroke:none" d="M 16.609375 -19.90625 C 16.578125 -19.738281 16.507812 -19.609375 16.40625 -19.515625 C 16.300781 -19.421875 16.164062 -19.375 16 -19.375 L 9.3125 -19.375 C 9.1875 -19.375 9.125 -19.3125 9.125 -19.1875 L 8.703125 -15.671875 C 8.648438 -15.546875 8.695312 -15.484375 8.84375 -15.484375 L 12.328125 -15.484375 C 12.492188 -15.484375 12.617188 -15.4375 12.703125 -15.34375 C 12.785156 -15.25 12.816406 -15.117188 12.796875 -14.953125 L 12.21875 -10.25 C 12.144531 -9.882812 11.941406 -9.703125 11.609375 -9.703125 L 8.125 -9.703125 C 8 -9.703125 7.9375 -9.644531 7.9375 -9.53125 L 7.515625 -5.96875 C 7.460938 -5.84375 7.507812 -5.78125 7.65625 -5.78125 L 14.34375 -5.78125 C 14.507812 -5.78125 14.632812 -5.734375 14.71875 -5.640625 C 14.800781 -5.546875 14.832031 -5.414062 14.8125 -5.25 L 14.234375 -0.546875 C 14.210938 -0.367188 14.144531 -0.234375 14.03125 -0.140625 C 13.925781 -0.046875 13.789062 0 13.625 0 L 0.71875 0 C 0.570312 0 0.457031 -0.046875 0.375 -0.140625 C 0.289062 -0.234375 0.257812 -0.367188 0.28125 -0.546875 L 3.234375 -24.625 C 3.253906 -24.789062 3.316406 -24.921875 3.421875 -25.015625 C 3.535156 -25.109375 3.664062 -25.15625 3.8125 -25.15625 L 16.71875 -25.15625 C 16.882812 -25.15625 17.007812 -25.109375 17.09375 -25.015625 C 17.175781 -24.921875 17.203125 -24.789062 17.171875 -24.625 Z M 16.609375 -19.90625 "/></g></g><g style="fill:#45cfef;fill-opacity:1;"><g transform="translate(196.68759, 336.171892)"><path style="stroke:none" d="M 18.65625 -25.15625 C 18.800781 -25.15625 18.914062 -25.109375 19 -25.015625 C 19.082031 -24.921875 19.109375 -24.789062 19.078125 -24.625 L 18.515625 -19.90625 C 18.484375 -19.738281 18.421875 -19.609375 18.328125 -19.515625 C 18.234375 -19.421875 18.101562 -19.375 17.9375 -19.375 L 13.765625 -19.375 C 13.640625 -19.375 13.578125 -19.3125 13.578125 -19.1875 L 11.28125 -0.546875 C 11.257812 -0.367188 11.203125 -0.234375 11.109375 -0.140625 C 11.015625 -0.046875 10.878906 0 10.703125 0 L 5.21875 0 C 5.039062 0 4.910156 -0.046875 4.828125 -0.140625 C 4.742188 -0.234375 4.71875 -0.367188 4.75 -0.546875 L 7.046875 -19.1875 C 7.046875 -19.3125 6.984375 -19.375 6.859375 -19.375 L 2.84375 -19.375 C 2.675781 -19.375 2.550781 -19.421875 2.46875 -19.515625 C 2.382812 -19.609375 2.351562 -19.738281 2.375 -19.90625 L 2.953125 -24.625 C 2.972656 -24.789062 3.035156 -24.921875 3.140625 -25.015625 C 3.253906 -25.109375 3.394531 -25.15625 3.5625 -25.15625 Z M 18.65625 -25.15625 "/></g></g><g style="fill:#d32f23;fill-opacity:0.4196;"><g transform="translate(215.157316, 337.133738)"><path style="stroke:none" d="M 11.609375 -25.15625 C 13.523438 -25.15625 15.039062 -24.535156 16.15625 -23.296875 C 17.269531 -22.066406 17.828125 -20.4375 17.828125 -18.40625 C 17.828125 -17.820312 17.800781 -17.378906 17.75 -17.078125 C 17.5625 -15.535156 17.113281 -14.175781 16.40625 -13 C 15.695312 -11.832031 14.785156 -10.929688 13.671875 -10.296875 C 12.554688 -9.660156 11.328125 -9.34375 9.984375 -9.34375 L 8.015625 -9.34375 C 7.890625 -9.34375 7.828125 -9.285156 7.828125 -9.171875 L 6.75 -0.546875 C 6.726562 -0.367188 6.660156 -0.234375 6.546875 -0.140625 C 6.441406 -0.046875 6.320312 0 6.1875 0 L 0.640625 0 C 0.503906 0 0.394531 -0.046875 0.3125 -0.140625 C 0.226562 -0.234375 0.195312 -0.367188 0.21875 -0.546875 L 3.15625 -24.625 C 3.1875 -24.789062 3.253906 -24.921875 3.359375 -25.015625 C 3.460938 -25.109375 3.585938 -25.15625 3.734375 -25.15625 Z M 9.125 -14.5625 C 9.65625 -14.5625 10.101562 -14.753906 10.46875 -15.140625 C 10.84375 -15.535156 11.078125 -16.128906 11.171875 -16.921875 C 11.203125 -17.066406 11.21875 -17.269531 11.21875 -17.53125 C 11.21875 -18.132812 11.082031 -18.59375 10.8125 -18.90625 C 10.550781 -19.21875 10.191406 -19.375 9.734375 -19.375 L 9.234375 -19.375 C 9.117188 -19.375 9.0625 -19.3125 9.0625 -19.1875 L 8.515625 -14.734375 C 8.472656 -14.617188 8.519531 -14.5625 8.65625 -14.5625 Z M 9.125 -14.5625 "/></g></g><g style="fill:#d32f23;fill-opacity:0.4196;"><g transform="translate(231.936448, 337.133738)"><path style="stroke:none" d="M 11.171875 0 C 10.835938 0 10.679688 -0.164062 10.703125 -0.5 L 10.640625 -3.234375 C 10.660156 -3.285156 10.644531 -3.328125 10.59375 -3.359375 C 10.550781 -3.398438 10.503906 -3.421875 10.453125 -3.421875 L 7.328125 -3.421875 C 7.210938 -3.421875 7.128906 -3.359375 7.078125 -3.234375 L 6.390625 -0.5 C 6.328125 -0.164062 6.125 0 5.78125 0 L 0.328125 0 C -0.0351562 0 -0.171875 -0.191406 -0.078125 -0.578125 L 7.828125 -24.6875 C 7.929688 -25 8.148438 -25.15625 8.484375 -25.15625 L 14.84375 -25.15625 C 15.175781 -25.15625 15.351562 -25 15.375 -24.6875 L 17.359375 -0.578125 L 17.359375 -0.5 C 17.359375 -0.164062 17.175781 0 16.8125 0 Z M 8.546875 -8.765625 C 8.503906 -8.648438 8.539062 -8.59375 8.65625 -8.59375 L 10.34375 -8.59375 C 10.414062 -8.59375 10.476562 -8.648438 10.53125 -8.765625 L 10.390625 -15.421875 C 10.390625 -15.515625 10.359375 -15.554688 10.296875 -15.546875 C 10.234375 -15.535156 10.203125 -15.492188 10.203125 -15.421875 Z M 8.546875 -8.765625 "/></g></g><g style="fill:#d32f23;fill-opacity:0.4196;"><g transform="translate(250.440205, 337.133738)"><path style="stroke:none" d="M 5.390625 -0.078125 C 5.222656 -0.078125 5.097656 -0.125 5.015625 -0.21875 C 4.929688 -0.3125 4.898438 -0.441406 4.921875 -0.609375 L 5.9375 -8.90625 C 5.957031 -8.957031 5.957031 -9.03125 5.9375 -9.125 L 2.953125 -24.546875 L 2.953125 -24.6875 C 2.953125 -25 3.117188 -25.15625 3.453125 -25.15625 L 9.234375 -25.15625 C 9.566406 -25.15625 9.75 -25 9.78125 -24.6875 L 10.203125 -17.46875 C 10.203125 -17.394531 10.234375 -17.359375 10.296875 -17.359375 C 10.359375 -17.359375 10.398438 -17.394531 10.421875 -17.46875 L 12.609375 -24.6875 C 12.710938 -25 12.929688 -25.15625 13.265625 -25.15625 L 19.046875 -25.15625 C 19.234375 -25.15625 19.359375 -25.097656 19.421875 -24.984375 C 19.484375 -24.878906 19.476562 -24.734375 19.40625 -24.546875 L 12.546875 -9.125 L 12.5 -8.90625 L 11.46875 -0.609375 C 11.4375 -0.441406 11.375 -0.3125 11.28125 -0.21875 C 11.1875 -0.125 11.054688 -0.078125 10.890625 -0.078125 Z M 5.390625 -0.078125 "/></g></g><g style="fill:#d8fd12;fill-opacity:1;"><g transform="translate(214.089086, 336.171892)"><path style="stroke:none" d="M 11.609375 -25.15625 C 13.523438 -25.15625 15.039062 -24.535156 16.15625 -23.296875 C 17.269531 -22.066406 17.828125 -20.4375 17.828125 -18.40625 C 17.828125 -17.820312 17.800781 -17.378906 17.75 -17.078125 C 17.5625 -15.535156 17.113281 -14.175781 16.40625 -13 C 15.695312 -11.832031 14.785156 -10.929688 13.671875 -10.296875 C 12.554688 -9.660156 11.328125 -9.34375 9.984375 -9.34375 L 8.015625 -9.34375 C 7.890625 -9.34375 7.828125 -9.285156 7.828125 -9.171875 L 6.75 -0.546875 C 6.726562 -0.367188 6.660156 -0.234375 6.546875 -0.140625 C 6.441406 -0.046875 6.320312 0 6.1875 0 L 0.640625 0 C 0.503906 0 0.394531 -0.046875 0.3125 -0.140625 C 0.226562 -0.234375 0.195312 -0.367188 0.21875 -0.546875 L 3.15625 -24.625 C 3.1875 -24.789062 3.253906 -24.921875 3.359375 -25.015625 C 3.460938 -25.109375 3.585938 -25.15625 3.734375 -25.15625 Z M 9.125 -14.5625 C 9.65625 -14.5625 10.101562 -14.753906 10.46875 -15.140625 C 10.84375 -15.535156 11.078125 -16.128906 11.171875 -16.921875 C 11.203125 -17.066406 11.21875 -17.269531 11.21875 -17.53125 C 11.21875 -18.132812 11.082031 -18.59375 10.8125 -18.90625 C 10.550781 -19.21875 10.191406 -19.375 9.734375 -19.375 L 9.234375 -19.375 C 9.117188 -19.375 9.0625 -19.3125 9.0625 -19.1875 L 8.515625 -14.734375 C 8.472656 -14.617188 8.519531 -14.5625 8.65625 -14.5625 Z M 9.125 -14.5625 "/></g></g><g style="fill:#d8fd12;fill-opacity:1;"><g transform="translate(230.868218, 336.171892)"><path style="stroke:none" d="M 11.171875 0 C 10.835938 0 10.679688 -0.164062 10.703125 -0.5 L 10.640625 -3.234375 C 10.660156 -3.285156 10.644531 -3.328125 10.59375 -3.359375 C 10.550781 -3.398438 10.503906 -3.421875 10.453125 -3.421875 L 7.328125 -3.421875 C 7.210938 -3.421875 7.128906 -3.359375 7.078125 -3.234375 L 6.390625 -0.5 C 6.328125 -0.164062 6.125 0 5.78125 0 L 0.328125 0 C -0.0351562 0 -0.171875 -0.191406 -0.078125 -0.578125 L 7.828125 -24.6875 C 7.929688 -25 8.148438 -25.15625 8.484375 -25.15625 L 14.84375 -25.15625 C 15.175781 -25.15625 15.351562 -25 15.375 -24.6875 L 17.359375 -0.578125 L 17.359375 -0.5 C 17.359375 -0.164062 17.175781 0 16.8125 0 Z M 8.546875 -8.765625 C 8.503906 -8.648438 8.539062 -8.59375 8.65625 -8.59375 L 10.34375 -8.59375 C 10.414062 -8.59375 10.476562 -8.648438 10.53125 -8.765625 L 10.390625 -15.421875 C 10.390625 -15.515625 10.359375 -15.554688 10.296875 -15.546875 C 10.234375 -15.535156 10.203125 -15.492188 10.203125 -15.421875 Z M 8.546875 -8.765625 "/></g></g><g style="fill:#d8fd12;fill-opacity:1;"><g transform="translate(249.371974, 336.171892)"><path style="stroke:none" d="M 5.390625 -0.078125 C 5.222656 -0.078125 5.097656 -0.125 5.015625 -0.21875 C 4.929688 -0.3125 4.898438 -0.441406 4.921875 -0.609375 L 5.9375 -8.90625 C 5.957031 -8.957031 5.957031 -9.03125 5.9375 -9.125 L 2.953125 -24.546875 L 2.953125 -24.6875 C 2.953125 -25 3.117188 -25.15625 3.453125 -25.15625 L 9.234375 -25.15625 C 9.566406 -25.15625 9.75 -25 9.78125 -24.6875 L 10.203125 -17.46875 C 10.203125 -17.394531 10.234375 -17.359375 10.296875 -17.359375 C 10.359375 -17.359375 10.398438 -17.394531 10.421875 -17.46875 L 12.609375 -24.6875 C 12.710938 -25 12.929688 -25.15625 13.265625 -25.15625 L 19.046875 -25.15625 C 19.234375 -25.15625 19.359375 -25.097656 19.421875 -24.984375 C 19.484375 -24.878906 19.476562 -24.734375 19.40625 -24.546875 L 12.546875 -9.125 L 12.5 -8.90625 L 11.46875 -0.609375 C 11.4375 -0.441406 11.375 -0.3125 11.28125 -0.21875 C 11.1875 -0.125 11.054688 -0.078125 10.890625 -0.078125 Z M 5.390625 -0.078125 "/></g></g></g></svg>