<svg xmlns="http://www.w3.org/2000/svg" xmlns:xlink="http://www.w3.org/1999/xlink" width="500" zoomAndPan="magnify" viewBox="0 0 375 374.999991" height="500" preserveAspectRatio="xMidYMid meet" version="1.2"><defs><clipPath id="8832aa5969"><path d="M 84.003906 90.835938 L 277.503906 90.835938 L 277.503906 240 L 84.003906 240 Z M 84.003906 90.835938 "/></clipPath><clipPath id="a76ad6919a"><path d="M 129 245 L 168 245 L 168 284.335938 L 129 284.335938 Z M 129 245 "/></clipPath><clipPath id="3490a4ab68"><path d="M 206 245 L 246 245 L 246 284.335938 L 206 284.335938 Z M 206 245 "/></clipPath><clipPath id="783a547eb4"><path d="M 277.328125 9.789062 L 327.578125 9.789062 L 327.578125 90.789062 L 277.328125 90.789062 Z M 277.328125 9.789062 "/></clipPath></defs><g id="ebe0a208e9"><path style=" stroke:none;fill-rule:nonzero;fill:#d8fd12;fill-opacity:1;" d="M 187.5 375 C 84.089844 375 0 290.910156 0 187.5 C 0 84.089844 84.089844 0 187.5 0 L 187.5 13.59375 C 91.664062 13.59375 13.59375 91.664062 13.59375 187.5 C 13.59375 283.335938 91.664062 361.40625 187.5 361.40625 C 283.335938 361.40625 361.40625 283.335938 361.40625 187.5 L 375 187.5 C 375 290.910156 290.910156 375 187.5 375 Z M 187.5 375 "/><g clip-rule="nonzero" clip-path="url(#8832aa5969)"><path style=" stroke:none;fill-rule:nonzero;fill:#d8fd12;fill-opacity:1;" d="M 135.554688 213.277344 L 234.488281 213.277344 C 236.054688 213.28125 237.609375 213.15625 239.15625 212.898438 C 240.703125 212.640625 242.214844 212.253906 243.695312 211.738281 C 245.175781 211.222656 246.601562 210.589844 247.976562 209.832031 C 249.347656 209.078125 250.648438 208.210938 251.875 207.238281 C 253.101562 206.261719 254.238281 205.1875 255.28125 204.019531 C 256.328125 202.851562 257.265625 201.605469 258.101562 200.277344 C 258.933594 198.949219 259.652344 197.5625 260.25 196.113281 C 260.847656 194.667969 261.320312 193.179688 261.667969 191.648438 L 277.167969 124.507812 C 277.277344 124.035156 277.332031 123.558594 277.332031 123.070312 C 277.332031 122.585938 277.28125 122.109375 277.171875 121.636719 C 277.066406 121.164062 276.90625 120.707031 276.699219 120.269531 C 276.488281 119.832031 276.230469 119.425781 275.929688 119.046875 C 275.628906 118.664062 275.289062 118.324219 274.90625 118.023438 C 274.527344 117.71875 274.121094 117.464844 273.683594 117.253906 C 273.246094 117.042969 272.792969 116.882812 272.320312 116.777344 C 271.847656 116.667969 271.367188 116.613281 270.882812 116.613281 L 120.949219 116.613281 L 116.054688 95.804688 C 115.890625 95.097656 115.613281 94.4375 115.222656 93.824219 C 114.832031 93.210938 114.351562 92.679688 113.785156 92.230469 C 113.214844 91.777344 112.585938 91.433594 111.898438 91.195312 C 111.214844 90.957031 110.507812 90.835938 109.78125 90.835938 L 90.449219 90.835938 C 90.023438 90.835938 89.605469 90.878906 89.191406 90.960938 C 88.773438 91.042969 88.371094 91.167969 87.980469 91.328125 C 87.589844 91.488281 87.21875 91.6875 86.867188 91.921875 C 86.515625 92.160156 86.191406 92.425781 85.890625 92.726562 C 85.589844 93.023438 85.324219 93.351562 85.089844 93.703125 C 84.855469 94.054688 84.65625 94.425781 84.492188 94.816406 C 84.332031 95.207031 84.210938 95.609375 84.128906 96.023438 C 84.042969 96.441406 84.003906 96.859375 84.003906 97.28125 C 84.003906 97.703125 84.042969 98.125 84.128906 98.539062 C 84.210938 98.953125 84.332031 99.355469 84.492188 99.746094 C 84.65625 100.140625 84.855469 100.511719 85.089844 100.863281 C 85.324219 101.214844 85.589844 101.539062 85.890625 101.839844 C 86.191406 102.136719 86.515625 102.40625 86.867188 102.640625 C 87.21875 102.875 87.589844 103.074219 87.980469 103.234375 C 88.371094 103.398438 88.773438 103.519531 89.191406 103.601562 C 89.605469 103.683594 90.023438 103.726562 90.449219 103.726562 L 104.675781 103.726562 L 127.824219 202.039062 C 126.820312 202.480469 125.859375 203.007812 124.941406 203.617188 C 124.027344 204.222656 123.171875 204.902344 122.371094 205.65625 C 121.574219 206.410156 120.84375 207.226562 120.183594 208.105469 C 119.523438 208.984375 118.941406 209.914062 118.441406 210.890625 C 117.9375 211.867188 117.523438 212.878906 117.191406 213.929688 C 116.863281 214.976562 116.625 216.046875 116.480469 217.132812 C 116.332031 218.222656 116.277344 219.316406 116.316406 220.414062 C 116.355469 221.511719 116.488281 222.597656 116.714844 223.675781 C 116.9375 224.75 117.253906 225.796875 117.65625 226.820312 C 118.058594 227.84375 118.546875 228.824219 119.117188 229.761719 C 119.6875 230.699219 120.332031 231.585938 121.054688 232.414062 C 121.777344 233.242188 122.5625 234.003906 123.414062 234.699219 C 124.265625 235.394531 125.167969 236.011719 126.125 236.550781 C 127.082031 237.089844 128.078125 237.546875 129.109375 237.917969 C 130.144531 238.289062 131.203125 238.570312 132.285156 238.761719 C 133.367188 238.949219 134.457031 239.046875 135.554688 239.054688 L 257.996094 239.054688 C 258.417969 239.054688 258.835938 239.011719 259.253906 238.929688 C 259.667969 238.847656 260.070312 238.722656 260.460938 238.5625 C 260.851562 238.402344 261.222656 238.203125 261.574219 237.96875 C 261.925781 237.730469 262.253906 237.464844 262.550781 237.164062 C 262.851562 236.867188 263.117188 236.539062 263.351562 236.1875 C 263.589844 235.835938 263.785156 235.464844 263.949219 235.074219 C 264.109375 234.683594 264.234375 234.28125 264.316406 233.867188 C 264.398438 233.449219 264.4375 233.03125 264.4375 232.609375 C 264.4375 232.1875 264.398438 231.765625 264.316406 231.351562 C 264.234375 230.9375 264.109375 230.535156 263.949219 230.144531 C 263.785156 229.75 263.589844 229.378906 263.351562 229.027344 C 263.117188 228.675781 262.851562 228.351562 262.550781 228.050781 C 262.253906 227.753906 261.925781 227.484375 261.574219 227.25 C 261.222656 227.015625 260.851562 226.816406 260.460938 226.65625 C 260.070312 226.492188 259.667969 226.371094 259.253906 226.289062 C 258.835938 226.207031 258.417969 226.164062 257.996094 226.164062 L 135.554688 226.164062 C 135.132812 226.164062 134.714844 226.125 134.300781 226.039062 C 133.882812 225.957031 133.480469 225.835938 133.089844 225.675781 C 132.699219 225.511719 132.328125 225.3125 131.976562 225.078125 C 131.625 224.84375 131.300781 224.578125 131 224.277344 C 130.699219 223.976562 130.433594 223.652344 130.199219 223.300781 C 129.964844 222.949219 129.765625 222.578125 129.601562 222.1875 C 129.441406 221.796875 129.320312 221.394531 129.234375 220.976562 C 129.152344 220.5625 129.113281 220.144531 129.113281 219.71875 C 129.113281 219.296875 129.152344 218.878906 129.234375 218.464844 C 129.320312 218.046875 129.441406 217.644531 129.601562 217.253906 C 129.765625 216.863281 129.964844 216.492188 130.199219 216.140625 C 130.433594 215.789062 130.699219 215.464844 131 215.164062 C 131.300781 214.863281 131.625 214.597656 131.976562 214.363281 C 132.328125 214.128906 132.699219 213.929688 133.089844 213.765625 C 133.480469 213.605469 133.882812 213.484375 134.300781 213.398438 C 134.714844 213.316406 135.132812 213.277344 135.554688 213.277344 Z M 262.78125 129.503906 L 249.109375 188.75 C 248.921875 189.574219 248.667969 190.375 248.347656 191.152344 C 248.023438 191.933594 247.640625 192.679688 247.191406 193.394531 C 246.742188 194.109375 246.238281 194.78125 245.675781 195.410156 C 245.113281 196.039062 244.503906 196.613281 243.84375 197.140625 C 243.183594 197.664062 242.484375 198.128906 241.746094 198.539062 C 241.007812 198.945312 240.238281 199.285156 239.441406 199.5625 C 238.644531 199.839844 237.832031 200.046875 237 200.183594 C 236.167969 200.324219 235.332031 200.390625 234.488281 200.386719 L 140.660156 200.386719 L 123.957031 129.503906 Z M 262.78125 129.503906 "/></g><g clip-rule="nonzero" clip-path="url(#a76ad6919a)"><path style=" stroke:none;fill-rule:nonzero;fill:#d8fd12;fill-opacity:1;" d="M 148.445312 245.496094 C 147.8125 245.496094 147.179688 245.527344 146.550781 245.589844 C 145.917969 245.652344 145.292969 245.746094 144.671875 245.867188 C 144.050781 245.992188 143.4375 246.144531 142.832031 246.328125 C 142.226562 246.511719 141.632812 246.726562 141.046875 246.96875 C 140.460938 247.210938 139.890625 247.480469 139.332031 247.78125 C 138.773438 248.078125 138.230469 248.402344 137.703125 248.753906 C 137.179688 249.105469 136.667969 249.484375 136.179688 249.886719 C 135.691406 250.285156 135.222656 250.710938 134.773438 251.160156 C 134.328125 251.605469 133.902344 252.074219 133.5 252.566406 C 133.097656 253.054688 132.722656 253.5625 132.371094 254.089844 C 132.019531 254.617188 131.695312 255.15625 131.394531 255.714844 C 131.097656 256.273438 130.828125 256.847656 130.582031 257.429688 C 130.339844 258.015625 130.128906 258.613281 129.945312 259.21875 C 129.761719 259.824219 129.605469 260.4375 129.484375 261.058594 C 129.359375 261.679688 129.265625 262.304688 129.207031 262.933594 C 129.144531 263.566406 129.113281 264.195312 129.113281 264.828125 C 129.113281 265.460938 129.144531 266.09375 129.207031 266.722656 C 129.265625 267.355469 129.359375 267.980469 129.484375 268.601562 C 129.605469 269.222656 129.761719 269.835938 129.945312 270.441406 C 130.128906 271.046875 130.339844 271.644531 130.582031 272.226562 C 130.828125 272.8125 131.097656 273.382812 131.394531 273.941406 C 131.695312 274.5 132.019531 275.042969 132.371094 275.570312 C 132.722656 276.097656 133.097656 276.605469 133.5 277.09375 C 133.902344 277.582031 134.328125 278.050781 134.773438 278.5 C 135.222656 278.945312 135.691406 279.371094 136.179688 279.773438 C 136.667969 280.175781 137.179688 280.550781 137.703125 280.902344 C 138.230469 281.253906 138.773438 281.582031 139.332031 281.878906 C 139.890625 282.175781 140.460938 282.449219 141.046875 282.691406 C 141.632812 282.933594 142.226562 283.144531 142.832031 283.328125 C 143.4375 283.511719 144.050781 283.667969 144.671875 283.789062 C 145.292969 283.914062 145.917969 284.007812 146.550781 284.070312 C 147.179688 284.128906 147.8125 284.160156 148.445312 284.160156 C 149.078125 284.160156 149.710938 284.128906 150.339844 284.070312 C 150.96875 284.007812 151.59375 283.914062 152.214844 283.789062 C 152.835938 283.667969 153.449219 283.511719 154.058594 283.328125 C 154.664062 283.144531 155.257812 282.933594 155.84375 282.691406 C 156.429688 282.449219 157 282.175781 157.558594 281.878906 C 158.117188 281.582031 158.660156 281.253906 159.183594 280.902344 C 159.710938 280.550781 160.21875 280.175781 160.710938 279.773438 C 161.199219 279.371094 161.667969 278.945312 162.113281 278.5 C 162.5625 278.050781 162.988281 277.582031 163.390625 277.09375 C 163.789062 276.605469 164.167969 276.097656 164.519531 275.570312 C 164.871094 275.042969 165.195312 274.5 165.496094 273.941406 C 165.792969 273.382812 166.0625 272.8125 166.304688 272.226562 C 166.546875 271.644531 166.761719 271.046875 166.945312 270.441406 C 167.128906 269.835938 167.28125 269.222656 167.40625 268.601562 C 167.527344 267.980469 167.621094 267.355469 167.683594 266.722656 C 167.746094 266.09375 167.777344 265.460938 167.777344 264.828125 C 167.777344 264.195312 167.746094 263.566406 167.683594 262.933594 C 167.621094 262.304688 167.527344 261.679688 167.40625 261.058594 C 167.28125 260.4375 167.128906 259.824219 166.945312 259.21875 C 166.761719 258.613281 166.546875 258.015625 166.304688 257.429688 C 166.0625 256.847656 165.792969 256.273438 165.496094 255.714844 C 165.195312 255.15625 164.871094 254.617188 164.519531 254.089844 C 164.167969 253.5625 163.789062 253.054688 163.390625 252.566406 C 162.988281 252.074219 162.5625 251.605469 162.113281 251.160156 C 161.667969 250.710938 161.199219 250.285156 160.710938 249.886719 C 160.21875 249.484375 159.710938 249.105469 159.183594 248.753906 C 158.660156 248.402344 158.117188 248.078125 157.558594 247.78125 C 157 247.480469 156.429688 247.210938 155.84375 246.96875 C 155.257812 246.726562 154.664062 246.511719 154.058594 246.328125 C 153.449219 246.144531 152.835938 245.992188 152.214844 245.867188 C 151.59375 245.746094 150.96875 245.652344 150.339844 245.589844 C 149.710938 245.527344 149.078125 245.496094 148.445312 245.496094 Z M 148.445312 271.273438 C 148.023438 271.273438 147.601562 271.230469 147.1875 271.148438 C 146.773438 271.066406 146.371094 270.945312 145.980469 270.78125 C 145.585938 270.621094 145.214844 270.421875 144.863281 270.1875 C 144.511719 269.953125 144.1875 269.683594 143.886719 269.386719 C 143.589844 269.085938 143.320312 268.761719 143.085938 268.410156 C 142.851562 268.058594 142.652344 267.6875 142.492188 267.296875 C 142.328125 266.90625 142.207031 266.5 142.125 266.085938 C 142.042969 265.671875 142 265.253906 142 264.828125 C 142 264.40625 142.042969 263.988281 142.125 263.570312 C 142.207031 263.15625 142.328125 262.753906 142.492188 262.363281 C 142.652344 261.972656 142.851562 261.601562 143.085938 261.25 C 143.320312 260.898438 143.589844 260.570312 143.886719 260.273438 C 144.1875 259.972656 144.511719 259.707031 144.863281 259.472656 C 145.214844 259.234375 145.585938 259.039062 145.980469 258.875 C 146.371094 258.714844 146.773438 258.589844 147.1875 258.507812 C 147.601562 258.425781 148.023438 258.386719 148.445312 258.386719 C 148.867188 258.386719 149.285156 258.425781 149.703125 258.507812 C 150.117188 258.589844 150.519531 258.714844 150.910156 258.875 C 151.300781 259.039062 151.671875 259.234375 152.023438 259.472656 C 152.375 259.707031 152.703125 259.972656 153 260.273438 C 153.300781 260.570312 153.566406 260.898438 153.804688 261.25 C 154.039062 261.601562 154.238281 261.972656 154.398438 262.363281 C 154.558594 262.753906 154.683594 263.15625 154.765625 263.570312 C 154.847656 263.988281 154.890625 264.40625 154.890625 264.828125 C 154.890625 265.253906 154.847656 265.671875 154.765625 266.085938 C 154.683594 266.5 154.558594 266.90625 154.398438 267.296875 C 154.238281 267.6875 154.039062 268.058594 153.804688 268.410156 C 153.566406 268.761719 153.300781 269.085938 153 269.386719 C 152.703125 269.683594 152.375 269.953125 152.023438 270.1875 C 151.671875 270.421875 151.300781 270.621094 150.910156 270.78125 C 150.519531 270.945312 150.117188 271.066406 149.703125 271.148438 C 149.285156 271.230469 148.867188 271.273438 148.445312 271.273438 Z M 148.445312 271.273438 "/></g><g clip-rule="nonzero" clip-path="url(#3490a4ab68)"><path style=" stroke:none;fill-rule:nonzero;fill:#d8fd12;fill-opacity:1;" d="M 225.773438 245.496094 C 225.140625 245.496094 224.507812 245.527344 223.878906 245.589844 C 223.25 245.652344 222.625 245.746094 222.003906 245.867188 C 221.382812 245.992188 220.769531 246.144531 220.164062 246.328125 C 219.554688 246.511719 218.960938 246.726562 218.375 246.96875 C 217.792969 247.210938 217.21875 247.480469 216.660156 247.78125 C 216.101562 248.078125 215.558594 248.402344 215.035156 248.753906 C 214.507812 249.105469 214 249.484375 213.511719 249.886719 C 213.019531 250.285156 212.550781 250.710938 212.105469 251.160156 C 211.65625 251.605469 211.230469 252.074219 210.832031 252.566406 C 210.429688 253.054688 210.050781 253.5625 209.699219 254.089844 C 209.347656 254.617188 209.023438 255.15625 208.726562 255.714844 C 208.425781 256.273438 208.15625 256.847656 207.914062 257.429688 C 207.671875 258.015625 207.457031 258.613281 207.273438 259.21875 C 207.089844 259.824219 206.9375 260.4375 206.8125 261.058594 C 206.691406 261.679688 206.597656 262.304688 206.535156 262.933594 C 206.472656 263.566406 206.441406 264.195312 206.441406 264.828125 C 206.441406 265.460938 206.472656 266.09375 206.535156 266.722656 C 206.597656 267.355469 206.691406 267.980469 206.8125 268.601562 C 206.9375 269.222656 207.089844 269.835938 207.273438 270.441406 C 207.457031 271.046875 207.671875 271.644531 207.914062 272.226562 C 208.15625 272.8125 208.425781 273.382812 208.726562 273.941406 C 209.023438 274.5 209.347656 275.042969 209.699219 275.570312 C 210.050781 276.097656 210.429688 276.605469 210.832031 277.09375 C 211.230469 277.582031 211.65625 278.050781 212.105469 278.5 C 212.550781 278.945312 213.019531 279.371094 213.511719 279.773438 C 214 280.175781 214.507812 280.550781 215.035156 280.902344 C 215.558594 281.253906 216.101562 281.582031 216.660156 281.878906 C 217.21875 282.175781 217.792969 282.449219 218.375 282.691406 C 218.960938 282.933594 219.554688 283.144531 220.164062 283.328125 C 220.769531 283.511719 221.382812 283.667969 222.003906 283.789062 C 222.625 283.914062 223.25 284.007812 223.878906 284.070312 C 224.507812 284.128906 225.140625 284.160156 225.773438 284.160156 C 226.40625 284.160156 227.039062 284.128906 227.667969 284.070312 C 228.300781 284.007812 228.925781 283.914062 229.546875 283.789062 C 230.167969 283.667969 230.78125 283.511719 231.386719 283.328125 C 231.992188 283.144531 232.585938 282.933594 233.171875 282.691406 C 233.757812 282.449219 234.328125 282.175781 234.886719 281.878906 C 235.445312 281.582031 235.988281 281.253906 236.515625 280.902344 C 237.042969 280.550781 237.550781 280.175781 238.039062 279.773438 C 238.527344 279.371094 238.996094 278.945312 239.445312 278.5 C 239.890625 278.050781 240.316406 277.582031 240.71875 277.09375 C 241.121094 276.605469 241.496094 276.097656 241.847656 275.570312 C 242.199219 275.042969 242.527344 274.5 242.824219 273.941406 C 243.121094 273.382812 243.394531 272.8125 243.636719 272.226562 C 243.878906 271.644531 244.089844 271.046875 244.273438 270.441406 C 244.457031 269.835938 244.613281 269.222656 244.734375 268.601562 C 244.859375 267.980469 244.953125 267.355469 245.015625 266.722656 C 245.074219 266.09375 245.105469 265.460938 245.105469 264.828125 C 245.105469 264.195312 245.074219 263.566406 245.015625 262.933594 C 244.953125 262.304688 244.859375 261.679688 244.734375 261.058594 C 244.613281 260.4375 244.457031 259.824219 244.273438 259.21875 C 244.089844 258.613281 243.878906 258.015625 243.636719 257.429688 C 243.394531 256.847656 243.121094 256.273438 242.824219 255.714844 C 242.527344 255.15625 242.199219 254.617188 241.847656 254.089844 C 241.496094 253.5625 241.121094 253.054688 240.71875 252.566406 C 240.316406 252.074219 239.890625 251.605469 239.445312 251.160156 C 238.996094 250.710938 238.527344 250.285156 238.039062 249.886719 C 237.550781 249.484375 237.042969 249.105469 236.515625 248.753906 C 235.988281 248.402344 235.445312 248.078125 234.886719 247.78125 C 234.328125 247.480469 233.757812 247.210938 233.171875 246.96875 C 232.585938 246.726562 231.992188 246.511719 231.386719 246.328125 C 230.78125 246.144531 230.167969 245.992188 229.546875 245.867188 C 228.925781 245.746094 228.300781 245.652344 227.667969 245.589844 C 227.039062 245.527344 226.40625 245.496094 225.773438 245.496094 Z M 225.773438 271.273438 C 225.351562 271.273438 224.933594 271.230469 224.515625 271.148438 C 224.101562 271.066406 223.699219 270.945312 223.308594 270.78125 C 222.917969 270.621094 222.546875 270.421875 222.195312 270.1875 C 221.84375 269.953125 221.515625 269.683594 221.21875 269.386719 C 220.917969 269.085938 220.652344 268.761719 220.417969 268.410156 C 220.179688 268.058594 219.984375 267.6875 219.820312 267.296875 C 219.660156 266.90625 219.535156 266.5 219.453125 266.085938 C 219.371094 265.671875 219.332031 265.253906 219.332031 264.828125 C 219.332031 264.40625 219.371094 263.988281 219.453125 263.570312 C 219.535156 263.15625 219.660156 262.753906 219.820312 262.363281 C 219.984375 261.972656 220.179688 261.601562 220.417969 261.25 C 220.652344 260.898438 220.917969 260.570312 221.21875 260.273438 C 221.515625 259.972656 221.84375 259.707031 222.195312 259.472656 C 222.546875 259.234375 222.917969 259.039062 223.308594 258.875 C 223.699219 258.714844 224.101562 258.589844 224.515625 258.507812 C 224.933594 258.425781 225.351562 258.386719 225.773438 258.386719 C 226.199219 258.386719 226.617188 258.425781 227.03125 258.507812 C 227.445312 258.589844 227.847656 258.714844 228.242188 258.875 C 228.632812 259.039062 229.003906 259.234375 229.355469 259.472656 C 229.707031 259.707031 230.03125 259.972656 230.332031 260.273438 C 230.628906 260.570312 230.898438 260.898438 231.132812 261.25 C 231.367188 261.601562 231.566406 261.972656 231.726562 262.363281 C 231.890625 262.753906 232.011719 263.15625 232.09375 263.570312 C 232.175781 263.988281 232.21875 264.40625 232.21875 264.828125 C 232.21875 265.253906 232.175781 265.671875 232.09375 266.085938 C 232.011719 266.5 231.890625 266.90625 231.726562 267.296875 C 231.566406 267.6875 231.367188 268.058594 231.132812 268.410156 C 230.898438 268.761719 230.628906 269.085938 230.332031 269.386719 C 230.03125 269.683594 229.707031 269.953125 229.355469 270.1875 C 229.003906 270.421875 228.632812 270.621094 228.242188 270.78125 C 227.847656 270.945312 227.445312 271.066406 227.03125 271.148438 C 226.617188 271.230469 226.199219 271.273438 225.773438 271.273438 Z M 225.773438 271.273438 "/></g><g clip-rule="nonzero" clip-path="url(#783a547eb4)"><path style=" stroke:none;fill-rule:nonzero;fill:#45cfef;fill-opacity:1;" d="M 325.757812 54.773438 C 324.707031 52.675781 323.246094 50.871094 321.378906 49.363281 C 319.511719 47.855469 317.289062 46.546875 314.714844 45.4375 C 312.140625 44.332031 309.332031 43.273438 306.285156 42.265625 C 304.699219 41.75 303.3125 41.269531 302.121094 40.824219 C 300.929688 40.378906 299.925781 39.902344 299.125 39.398438 C 298.316406 38.898438 297.714844 38.351562 297.3125 37.761719 C 296.910156 37.171875 296.707031 36.476562 296.707031 35.667969 C 296.707031 34.863281 296.894531 34.183594 297.269531 33.621094 C 297.640625 33.058594 298.144531 32.609375 298.777344 32.261719 C 299.410156 31.917969 300.144531 31.664062 300.976562 31.507812 C 301.8125 31.351562 302.703125 31.269531 303.652344 31.269531 C 304.570312 31.269531 305.476562 31.40625 306.371094 31.679688 C 307.257812 31.953125 308.109375 32.296875 308.914062 32.714844 C 309.71875 33.132812 310.472656 33.597656 311.179688 34.117188 C 311.882812 34.632812 312.523438 35.136719 313.097656 35.625 L 313.484375 35.972656 C 313.886719 36.316406 314.253906 36.605469 314.585938 36.832031 C 314.917969 37.0625 315.28125 37.179688 315.6875 37.179688 C 316.171875 37.179688 316.664062 36.933594 317.152344 36.445312 L 323.75 29.414062 C 324.125 29.011719 324.40625 28.652344 324.59375 28.335938 C 324.777344 28.019531 324.871094 27.675781 324.871094 27.300781 C 324.871094 26.929688 324.679688 26.480469 324.289062 25.964844 C 323.902344 25.445312 323.378906 24.902344 322.714844 24.324219 C 322.054688 23.75 321.285156 23.15625 320.410156 22.535156 C 319.53125 21.917969 318.605469 21.320312 317.625 20.746094 C 316.101562 19.914062 314.570312 19.230469 313.035156 18.695312 C 311.496094 18.164062 309.921875 17.753906 308.308594 17.46875 L 308.308594 11.6875 C 308.308594 11.113281 308.074219 10.652344 307.597656 10.308594 C 307.125 9.960938 306.671875 9.789062 306.238281 9.789062 L 298.132812 9.789062 C 297.5 9.789062 297.023438 9.976562 296.707031 10.351562 C 296.390625 10.726562 296.234375 11.171875 296.234375 11.6875 L 296.234375 17.683594 C 293.734375 18.171875 291.480469 18.925781 289.484375 19.949219 C 287.484375 20.96875 285.796875 22.210938 284.417969 23.679688 C 283.035156 25.144531 281.96875 26.8125 281.222656 28.683594 C 280.476562 30.550781 280.101562 32.59375 280.101562 34.808594 C 280.101562 37.335938 280.535156 39.628906 281.398438 41.6875 C 282.257812 43.742188 283.554688 45.625 285.277344 47.335938 C 287.003906 49.046875 289.160156 50.601562 291.746094 51.996094 C 294.335938 53.390625 297.355469 54.6875 300.804688 55.898438 C 301.582031 56.15625 302.503906 56.480469 303.566406 56.867188 C 304.628906 57.257812 305.652344 57.722656 306.628906 58.269531 C 307.605469 58.816406 308.429688 59.441406 309.109375 60.144531 C 309.785156 60.851562 310.121094 61.648438 310.121094 62.539062 C 310.121094 63.34375 310 64.109375 309.753906 64.824219 C 309.511719 65.542969 309.101562 66.175781 308.527344 66.722656 C 307.949219 67.269531 307.167969 67.710938 306.175781 68.039062 C 305.183594 68.371094 303.953125 68.535156 302.488281 68.535156 C 300.90625 68.535156 299.394531 68.261719 297.960938 67.714844 C 296.519531 67.167969 295.070312 66.40625 293.601562 65.429688 C 292.625 64.769531 291.753906 64.101562 290.992188 63.425781 C 290.230469 62.75 289.605469 62.210938 289.117188 61.804688 C 288.714844 61.460938 288.367188 61.203125 288.082031 61.03125 C 287.792969 60.855469 287.519531 60.769531 287.261719 60.769531 C 286.886719 60.769531 286.398438 60.988281 285.796875 61.417969 L 278.335938 68.535156 C 277.671875 69.140625 277.34375 69.683594 277.34375 70.175781 C 277.34375 70.605469 277.671875 71.179688 278.335938 71.898438 C 278.363281 71.929688 278.390625 71.949219 278.421875 71.964844 C 278.449219 71.980469 278.476562 72.015625 278.507812 72.070312 C 278.535156 72.101562 278.5625 72.121094 278.59375 72.136719 C 278.621094 72.152344 278.648438 72.1875 278.679688 72.242188 L 278.808594 72.375 C 279.269531 72.863281 279.894531 73.511719 280.683594 74.3125 C 281.472656 75.121094 282.445312 75.941406 283.59375 76.773438 C 285.496094 78.152344 287.503906 79.347656 289.632812 80.351562 C 291.761719 81.359375 293.960938 82.105469 296.234375 82.597656 L 296.234375 88.890625 C 296.234375 90.15625 296.867188 90.789062 298.132812 90.789062 L 306.238281 90.789062 C 307.621094 90.789062 308.308594 90.15625 308.308594 88.890625 L 308.308594 82.726562 C 311.070312 82.238281 313.609375 81.410156 315.921875 80.246094 C 318.238281 79.082031 320.242188 77.621094 321.941406 75.867188 C 323.636719 74.113281 324.957031 72.109375 325.90625 69.851562 C 326.855469 67.59375 327.332031 65.113281 327.332031 62.410156 C 327.332031 59.421875 326.808594 56.875 325.757812 54.773438 "/></g></g></svg>